<svg width="14" height="17" viewBox="0 0 14 17" fill="none" xmlns="http://www.w3.org/2000/svg">
<path d="M7.8339 8.20068L10.2772 5.6915L1.54066 0.598432C1.07988 0.330704 0.673667 0.349382 0.394775 0.561075L7.8339 8.20068Z" fill="#C7CBCF"/>
<path d="M0.200196 0.750488C0.0728764 0.937276 0.00012207 1.19255 0.00012207 1.51632V15.2825C0.00012207 15.6001 0.0728764 15.8554 0.200196 16.0422L7.65145 8.39009L0.200196 0.750488Z" fill="#C7CBCF"/>
<path d="M7.84074 8.5957L0.401611 16.2415C0.686566 16.4532 1.08671 16.4657 1.54143 16.1979L10.278 11.0987L7.84074 8.5957Z" fill="#C7CBCF"/>
<path d="M13.3628 7.49505L10.5193 5.83887L8.02744 8.39785L10.5193 10.9568L13.3688 9.29443C14.2116 8.80256 14.2116 7.99315 13.3628 7.49505Z" fill="#C7CBCF"/>
</svg>
